<svg width="29" height="32" viewBox="0 0 29 32" fill="none" xmlns="http://www.w3.org/2000/svg">
<g clip-path="url(#clip0_30_56)">
<path d="M9.7692 0.116009C10.2446 0.215325 10.7242 0.299619 11.1946 0.418966C11.7325 0.55584 12.2613 0.725262 12.795 0.876324C12.8902 0.903031 12.9912 0.911377 13.0651 0.923895C13.3008 1.07579 13.5217 1.24354 13.7623 1.36957C14.3403 1.67002 14.8125 2.07897 15.0473 2.70325C15.237 3.20734 15.0785 3.66637 14.7271 4.04528C14.0521 4.77388 13.199 5.21872 12.2695 5.48245C11.4237 5.72198 10.555 5.87638 9.69448 6.05832C9.34551 6.1326 8.99325 6.21355 8.63935 6.23275C8.25836 6.25278 7.87407 6.19018 7.49144 6.18768C6.33285 6.18017 5.19068 6.05748 4.05262 5.82129C3.16418 5.63685 2.32172 5.33472 1.52524 4.91993C1.0605 4.6779 0.617096 4.3716 0.296862 3.9084C-0.201552 3.18731 -0.0225498 2.63481 0.447126 2.07063C1.09334 1.29529 2.01955 1.03239 2.90061 0.693548C3.25861 0.55584 3.65931 0.524125 4.005 0.365552C4.49767 0.139377 5.03221 0.307131 5.52077 0.126024C5.64558 0.080121 5.77203 0.0417297 5.89766 0C6.0003 0 6.10294 0 6.20476 0C6.26552 0.0166919 6.32546 0.0333838 6.38622 0.0500756C6.46833 0.0333838 6.55209 0.0166919 6.63502 0C7.24921 0 7.86422 0 8.47841 0C8.6024 0.0175265 8.72639 0.0358875 8.84956 0.053414C8.91114 0.053414 8.9719 0.053414 9.03348 0.053414C9.279 0.0742789 9.52369 0.0951437 9.7692 0.115174V0.116009Z" fill="#002E78"/>
<path d="M9.76958 0.115998C9.52407 0.0951331 9.27938 0.0742682 9.03387 0.054238C9.03141 0.0367115 9.03058 0.0183504 9.03223 0.000823975H9.76958C9.76958 0.0392153 9.76958 0.0776066 9.76958 0.116833V0.115998Z" fill="white"/>
<path d="M8.85075 0.053414C8.72677 0.0358875 8.60278 0.0175265 8.47879 0C8.60196 0 8.7243 0 8.84747 0C8.84665 0.0175265 8.84747 0.0358875 8.84993 0.053414H8.85075Z" fill="#A4A4A4"/>
<path d="M6.63539 0C6.55246 0.0166919 6.46953 0.0333838 6.3866 0.0500756C6.38742 0.0333838 6.38824 0.0166919 6.38988 0C6.47117 0 6.55328 0 6.63539 0Z" fill="#A4A4A4"/>
<path d="M6.38907 0C6.38743 0.0166919 6.3866 0.0333838 6.38578 0.0500756C6.32584 0.0333838 6.26508 0.0166919 6.20514 0C6.26672 0 6.32831 0 6.38989 0H6.38907Z" fill="#D3D3D3"/>
<path d="M8.85076 0.053414C8.8483 0.0358875 8.84748 0.0183611 8.8483 0H9.03305C9.03141 0.0175265 9.03305 0.0358875 9.03469 0.053414C8.97311 0.053414 8.91235 0.053414 8.85076 0.053414Z" fill="#D3D3D3"/>
<path d="M21.2471 8.59299C23.0199 8.64056 24.7688 8.80581 26.448 9.43259C27.1394 9.69048 27.793 10.0243 28.3628 10.5025C28.8071 10.8764 29.0476 11.3972 28.9549 11.9556C28.9039 12.2644 28.6108 12.5615 28.3678 12.8018C27.683 13.477 26.8257 13.8351 25.9274 14.1272C25.0357 14.4168 24.1341 14.6271 23.1989 14.6805C22.4919 14.7214 21.7857 14.789 21.0779 14.7999C19.8085 14.8182 18.5686 14.5895 17.3394 14.2849C16.5224 14.0821 15.7448 13.7808 15.0387 13.3143C14.5238 12.9738 14.0197 12.6132 13.8604 11.9439C13.7569 11.5091 13.8694 11.1493 14.1502 10.8188C14.8736 9.96756 15.8491 9.5728 16.8665 9.24397C17.8986 8.91013 18.9545 8.73236 20.0343 8.68145C20.4391 8.66226 20.8423 8.62303 21.2463 8.59299H21.2471Z" fill="#002E78"/>
<path d="M17.5759 19.6063C18.1819 19.7106 18.7854 19.8366 19.3947 19.9117C19.866 19.9702 20.3455 19.9735 20.8217 19.9852C21.344 19.9977 21.8687 20.0211 22.3876 19.9835C23.0059 19.9393 23.6184 19.8299 24.2359 19.7623C24.5159 19.7315 24.7959 19.7248 25.0053 19.4953C25.3477 19.6647 25.6376 19.4477 25.9496 19.3709C26.9103 19.1339 27.7856 18.7149 28.5903 18.1365C28.6962 18.0606 28.8021 17.9838 28.9097 17.9104C28.9228 17.9012 28.9466 17.9095 28.9861 17.9095C28.9861 18.6966 29.0008 19.4844 28.9811 20.2714C28.9655 20.894 28.5681 21.3189 28.1198 21.6535C27.1722 22.3621 26.0884 22.7694 24.9355 22.9905C24.2244 23.1274 23.5133 23.266 22.7998 23.3912C22.6709 23.4137 22.5321 23.3678 22.3975 23.367C21.7217 23.3636 21.0443 23.3903 20.3701 23.3586C19.6878 23.3269 18.994 23.3044 18.3297 23.1608C17.4667 22.9747 16.6209 22.6959 15.7834 22.4088C15.4697 22.3012 15.2193 22.0141 14.9089 21.8872C14.4516 21.7011 14.2791 21.2654 13.9958 20.9308C13.8949 20.8123 13.8374 20.6186 13.8341 20.4584C13.8185 19.678 13.8267 18.8969 13.8292 18.1165C13.8292 18.0614 13.8522 18.0064 13.8735 17.9112C14.8227 18.7032 15.8967 19.1506 17.0307 19.4669C17.0865 19.4828 17.1473 19.4786 17.2064 19.4828C17.3296 19.5245 17.4519 19.5654 17.5751 19.6071L17.5759 19.6063Z" fill="#002E78"/>
<path d="M15.1618 4.96167C15.1618 5.14027 15.1618 5.26964 15.1618 5.39816C15.1618 5.89808 15.1339 6.39968 15.1684 6.89709C15.2291 7.78594 14.8128 8.39185 14.1321 8.87174C13.3406 9.42925 12.453 9.75808 11.5317 9.98759C10.8781 10.1503 10.2113 10.2931 9.54295 10.359C8.6463 10.4475 7.74143 10.4833 6.83985 10.4884C5.71657 10.4942 4.61793 10.2764 3.53242 9.99093C2.59553 9.74473 1.70463 9.39503 0.92457 8.80581C0.656888 8.60384 0.410555 8.35763 0.20774 8.09056C0.0944268 7.942 0.0476235 7.70832 0.0435179 7.51219C0.0262746 6.68093 0.0361279 5.84884 0.0361279 5.0493C0.550143 5.35309 1.05841 5.70446 1.60856 5.96569C2.49946 6.38883 3.44456 6.66341 4.42086 6.80946C5.00467 6.89709 5.58848 6.98306 6.17393 7.054C6.2815 7.06735 6.39728 6.99641 6.51059 6.97471C6.57299 6.96303 6.64197 6.95802 6.70191 6.97304C6.86859 7.01644 7.03199 7.11492 7.19622 7.11492C7.7751 7.11492 8.35645 7.10574 8.93205 7.05316C9.49451 7.00225 10.0644 6.94133 10.6088 6.79945C11.2008 6.64421 11.8256 6.65423 12.3963 6.4147C12.958 6.17851 13.5262 5.95233 14.0706 5.67859C14.3867 5.52001 14.6618 5.27548 14.9574 5.07184C15.0033 5.04012 15.0551 5.01926 15.1635 4.96167H15.1618Z" fill="#002E78"/>
<path d="M14.0714 29.5613C13.9901 29.3969 13.8431 29.2333 13.839 29.0664C13.8177 28.2493 13.8341 27.4314 13.8374 26.6135C13.8694 26.5993 13.9006 26.586 13.9326 26.5718L14.0049 26.6152C14.0271 26.6302 14.0492 26.6461 14.0714 26.6611C14.872 27.2854 15.7727 27.716 16.74 27.9781C17.5045 28.1851 18.2812 28.387 19.0654 28.4697C20.1033 28.579 21.1559 28.6424 22.1971 28.5957C23.6809 28.5289 25.1506 28.2952 26.5671 27.8003C27.4013 27.5082 28.1625 27.0851 28.8645 26.5468C28.8875 26.5292 28.9163 26.5176 28.9705 26.4883C28.977 26.5927 28.9869 26.6795 28.9869 26.7663C28.9885 27.3388 28.9565 27.913 28.9951 28.4822C29.0575 29.4078 28.5771 29.9803 27.8685 30.431C26.7346 31.1512 25.4832 31.5093 24.176 31.7513C22.8794 31.9908 21.5763 32.0426 20.2757 31.9725C18.6138 31.8832 16.9896 31.541 15.4804 30.7898C14.9541 30.5278 14.4286 30.2307 14.1231 29.6757C14.1059 29.6381 14.0895 29.5997 14.0722 29.5622L14.0714 29.5613Z" fill="#002E78"/>
<path d="M13.9326 22.2611C14.4491 22.5874 14.9656 22.9138 15.4821 23.2401C15.5239 23.2559 15.5666 23.2726 15.6085 23.2885C15.6684 23.3144 15.7276 23.3402 15.7875 23.3669C15.8302 23.3828 15.8729 23.3987 15.9156 23.4145C16.4231 23.5714 16.9247 23.7484 17.4388 23.8777C17.9347 24.0029 18.4405 24.0997 18.9471 24.1682C19.2583 24.2099 19.5794 24.1757 19.9152 24.1757C20.022 24.2116 20.1566 24.2925 20.2921 24.295C20.9564 24.3084 21.6207 24.3075 22.285 24.2967C22.4599 24.2933 22.6323 24.2224 22.808 24.2065C23.0593 24.1848 23.3155 24.2049 23.5643 24.1715C23.9264 24.1239 24.2835 24.0438 24.6432 23.9779C24.7048 23.9779 24.7664 23.9779 24.8279 23.9779C25.3403 23.846 25.8584 23.7317 26.3642 23.5781C27.1993 23.3244 27.9671 22.9271 28.6568 22.3796C28.7479 22.307 28.8514 22.2494 28.9507 22.1843C28.9507 23.0732 28.9836 23.942 28.9376 24.8066C28.9113 25.2957 28.5344 25.632 28.174 25.9108C27.1254 26.7212 25.9036 27.1009 24.6292 27.3697C23.1603 27.6793 21.6741 27.7502 20.1936 27.6509C19.1188 27.5791 18.0472 27.3396 16.9937 27.0876C16.1595 26.8881 15.3679 26.5242 14.6807 25.9834C14.1551 25.5703 13.7635 25.0854 13.8177 24.3284C13.8661 23.6557 13.8333 22.9772 13.8366 22.3012C13.8686 22.287 13.8998 22.2736 13.9318 22.2594L13.9326 22.2611Z" fill="#002E78"/>
<path d="M21.3251 15.692C21.858 15.6712 22.3901 15.6503 22.923 15.6303C22.9435 15.6595 22.964 15.6895 22.9854 15.7187C23.0059 15.6887 23.0256 15.6586 23.0461 15.6286C23.7835 15.5034 24.5209 15.3791 25.259 15.2539C25.2853 15.2889 25.3108 15.324 25.337 15.359L25.443 15.2539C25.6942 15.1754 25.9447 15.097 26.1959 15.0193C26.3889 15.1412 26.5449 15.147 26.6114 14.8791C27.0819 14.6646 27.5524 14.451 28.0221 14.2365C28.0492 14.2724 28.0771 14.3083 28.1042 14.3433C28.1387 14.2665 28.1723 14.1889 28.2068 14.1121C28.4581 13.9461 28.7085 13.78 28.9516 13.6189C28.9516 14.4351 28.9622 15.2564 28.9483 16.0776C28.9376 16.7169 28.477 17.0466 28.0278 17.3746C27.8217 17.2686 27.8184 17.4388 27.7815 17.5624C27.3102 17.791 26.8397 18.0205 26.3684 18.2492C26.1253 18.1315 25.9299 18.1608 25.8149 18.4362L25.567 18.5447C25.4249 18.3076 25.3748 18.4629 25.3214 18.6039C25.0447 18.6765 24.7688 18.75 24.4921 18.8226C24.4749 18.8159 24.4568 18.8084 24.4396 18.8017C24.4535 18.8134 24.4667 18.8243 24.4806 18.8359C24.4379 18.8677 24.3969 18.9236 24.3533 18.9261C24.144 18.9361 23.9346 18.9319 23.7252 18.9328C23.6907 18.8944 23.6562 18.8551 23.6217 18.8167C23.5946 18.8927 23.5675 18.9686 23.5396 19.0454C23.3721 19.0621 23.2054 19.0905 23.0379 19.093C22.8926 19.0955 22.7464 19.0554 22.6003 19.0579C21.9705 19.0696 21.3415 19.0905 20.7117 19.108C20.6206 18.8977 20.5861 18.8885 20.4662 19.0421C19.8093 18.9678 19.1516 18.8927 18.4947 18.8184C18.4635 18.7759 18.4331 18.7333 18.4019 18.6916L18.3149 18.7959C18.0694 18.7592 17.8239 18.7224 17.5792 18.6857C17.5718 18.6607 17.5644 18.6356 17.557 18.6106C17.5431 18.6356 17.5291 18.6607 17.5143 18.6857C16.9781 18.4921 16.4419 18.2985 15.9058 18.1048C15.8705 18.0798 15.836 18.0556 15.8007 18.0306L15.611 17.9388C15.6258 17.6742 15.4328 17.7576 15.2965 17.746C14.6552 17.4397 14.1346 17.009 13.8686 16.3171C13.8472 16.2621 13.8308 16.2011 13.8308 16.1427C13.8325 15.354 13.8366 14.5645 13.8407 13.7758C13.9211 13.7858 14.0008 13.795 14.0812 13.805C14.1215 13.8259 14.1617 13.8467 14.202 13.8684C14.2003 13.9185 14.1995 13.9678 14.1978 14.0178C14.2397 14.0078 14.2808 13.9978 14.3227 13.9878C14.4688 14.0729 14.615 14.1589 14.7603 14.244C14.7981 14.2615 14.835 14.2791 14.8728 14.2966C15.2218 14.466 15.5699 14.6354 15.9189 14.804C15.9936 14.8332 16.0683 14.8624 16.1422 14.8908C16.2514 14.9284 16.3615 14.9668 16.4707 15.0043C16.5126 15.0193 16.5544 15.0344 16.5963 15.0494C17.0578 15.1562 17.5184 15.2656 17.9799 15.369C18.9816 15.5935 19.9916 15.7304 21.0205 15.682C21.0812 15.6795 21.142 15.6887 21.2036 15.692C21.2241 15.7221 21.2438 15.7521 21.2643 15.7822C21.2849 15.7521 21.3054 15.7229 21.3267 15.6929L21.3251 15.692Z" fill="#002E78"/>
<path d="M0.0262625 26.4575C0.7045 27.0692 1.43611 27.464 2.23505 27.7352C2.61769 27.8654 2.99622 28.0524 3.38953 28.0974C4.0144 28.1684 4.59082 28.4488 5.21651 28.483C5.5663 28.5022 5.91691 28.4864 6.22729 28.4864C6.44407 28.5331 6.62882 28.6074 6.81357 28.6065C7.39163 28.6032 7.98283 28.6391 8.54365 28.5273C8.92793 28.4505 9.28183 28.599 9.66118 28.5022C10.268 28.3478 10.9002 28.3027 11.5128 28.1684C11.9718 28.0682 12.416 27.9005 12.9128 27.7486C12.8594 28.8035 12.8323 29.8584 13.7232 30.6429C12.9752 31.0886 12.1894 31.3365 11.3822 31.5593C9.76053 32.0075 8.10928 32.0292 6.45556 31.9741C5.74284 31.9499 5.03586 31.7688 4.32396 31.6812C3.44126 31.5735 2.63083 31.2322 1.83517 30.8716C1.22919 30.597 0.627316 30.2632 0.264385 29.6548C0.144502 29.4545 0.0443269 29.2074 0.0369369 28.9779C0.00984024 28.16 0.0262625 27.3405 0.0262625 26.4583V26.4575Z" fill="#002E78"/>
<path d="M0.0197058 9.26733C0.960699 10.046 1.98955 10.4917 3.08327 10.8097C3.96761 11.0667 4.86262 11.2503 5.78226 11.3079C6.46871 11.3505 7.15598 11.4331 7.84243 11.4214C8.57486 11.4089 9.327 11.3939 10.0307 11.2161C10.5521 11.0851 11.0932 11.1452 11.6007 10.9399C12.1024 10.7371 12.6287 10.5985 13.146 10.4349C13.1813 10.4241 13.224 10.4383 13.3209 10.4449C12.8832 10.9732 12.9202 11.5767 12.9218 12.1742C12.9235 12.5698 12.9218 12.9646 12.9218 13.3602C12.9218 13.8751 12.8701 13.9344 12.361 14.0571C11.5251 14.259 10.6917 14.4694 9.85497 14.668C9.67104 14.7114 9.47973 14.7222 9.29087 14.7431C8.50178 14.8274 7.70695 14.8533 6.92032 14.7932C6.01546 14.7247 5.11881 14.5545 4.21805 14.4326C3.37887 14.32 2.58157 14.0604 1.83272 13.6732C1.17419 13.3335 0.520584 12.9587 0.164221 12.2502C0.0796469 12.0824 0.0312014 11.8771 0.0279169 11.6877C0.0131369 10.9006 0.021348 10.1136 0.021348 9.26733H0.0197058Z" fill="#002E78"/>
<path d="M0.242234 18.0431C0.777598 18.4662 1.34827 18.8117 2.01255 19.0004C2.56105 19.1556 3.08328 19.4202 3.63671 19.5445C4.4028 19.7164 5.1845 19.8475 5.9662 19.9134C6.84725 19.9877 7.73651 19.9735 8.62167 19.9885C8.79657 19.9919 9.00267 20.0144 9.05276 19.8124C10.3903 19.9167 11.636 19.537 12.9218 19.1422C12.9218 19.436 12.9218 19.7023 12.9218 19.9685C12.9218 20.728 12.9276 21.4875 12.9153 22.2469C12.9136 22.3437 12.8348 22.5048 12.7625 22.5249C11.847 22.7752 10.9372 23.0874 10.0036 23.2184C9.00431 23.3586 7.98038 23.3319 6.96713 23.362C6.45804 23.377 5.93664 23.422 5.44069 23.3352C4.65653 23.1975 3.88797 22.9647 3.11612 22.7627C2.28762 22.5457 1.51824 22.1818 0.837539 21.6636C0.336661 21.283 -0.0279119 20.8014 0.0098592 20.0862C0.0484514 19.3626 0.0180703 18.6356 0.0180703 17.8661C0.0936125 17.9279 0.134668 17.9613 0.175724 17.9955C0.197894 18.0114 0.220885 18.0281 0.243055 18.0439L0.242234 18.0431Z" fill="#002E78"/>
<path d="M10.6942 15.3615C10.8321 15.3565 10.9766 15.3757 11.108 15.3432C11.6992 15.198 12.2871 15.0385 12.9046 14.8766C12.9103 14.9626 12.921 15.0502 12.921 15.1379C12.9227 15.9808 12.921 16.8237 12.921 17.6667C12.921 18.1791 12.8742 18.2409 12.3947 18.3661C11.8117 18.5188 11.232 18.6882 10.6441 18.8201C10.2655 18.9052 9.87634 18.9444 9.48959 18.9895C9.19892 19.0237 8.89018 18.9803 8.61757 19.0655C8.06743 19.2382 7.52139 19.0913 6.97617 19.1014C6.43013 19.1105 5.8767 19.0254 5.33641 18.9236C4.48574 18.7633 3.62768 18.6089 2.80246 18.3519C1.94112 18.084 1.11015 17.7059 0.474614 17.0099C0.185583 16.6927 -0.0221579 16.3564 0.00493873 15.8756C0.0468154 15.1212 0.0164343 14.3617 0.0164343 13.5296C0.113325 13.654 0.16834 13.7249 0.224175 13.7967C0.24224 13.8175 0.260304 13.8392 0.278369 13.8601C0.287401 13.8434 0.296433 13.8276 0.304644 13.8109C1.28177 14.547 2.39848 14.9634 3.56692 15.238C4.37079 15.4266 5.17301 15.6319 6.01219 15.6253C6.94825 15.6178 7.88514 15.6937 8.81957 15.6687C9.38121 15.6536 9.93874 15.5134 10.4987 15.4291C10.5636 15.4066 10.6277 15.3849 10.6925 15.3624L10.6942 15.3615Z" fill="#002E78"/>
<path d="M1.65699 23.2259C2.06509 23.377 2.47236 23.5289 2.88045 23.6799C2.92315 23.6958 2.96667 23.7125 3.00936 23.7283C3.39857 23.8118 3.78778 23.8961 4.17698 23.9796C4.23857 24.0004 4.30015 24.0213 4.36173 24.0421C4.76572 24.1072 5.16971 24.1723 5.57287 24.2366C5.59258 24.2399 5.61393 24.2391 5.63363 24.2399C6.61568 24.2608 7.59855 24.3075 8.57978 24.2925C9.15784 24.2833 9.74329 24.2191 10.3107 24.1039C11.1384 23.9362 11.9537 23.7 12.774 23.4938C12.8118 23.4846 12.8537 23.493 12.921 23.493V26.0176C12.921 26.51 12.6829 26.8364 12.2066 26.9966C12.1697 27.0091 12.1385 27.0383 12.1048 27.06C12.0629 27.0742 12.0202 27.0892 11.9784 27.1034C11.4676 27.2211 10.9594 27.353 10.4453 27.4531C10.0635 27.5274 9.67596 27.59 9.2884 27.6075C8.39339 27.6468 7.49509 27.706 6.60255 27.6651C4.87739 27.5867 3.19247 27.2795 1.62908 26.48C1.09453 26.2071 0.589549 25.8933 0.261926 25.3558C0.0845658 25.0645 -0.0115042 24.7682 0.00738137 24.4094C0.0410469 23.7659 0.0155925 23.1199 0.0188769 22.4748C0.0188769 22.3755 0.0443314 22.277 0.0574691 22.1785L0.0837447 22.186L0.110841 22.1843C0.33911 22.3529 0.567379 22.5224 0.795648 22.6909C0.838346 22.7068 0.881044 22.7227 0.924562 22.7385C1.1323 22.8846 1.34004 23.0306 1.54779 23.1767C1.58391 23.1934 1.62086 23.2101 1.65699 23.2267V23.2259Z" fill="#002E78"/>
<path d="M25.8141 18.4362C25.929 18.1608 26.1245 18.1315 26.3675 18.2492C26.1828 18.3118 25.998 18.3736 25.8141 18.4362Z" fill="#002E78"/>
<path d="M17.5759 19.6063C17.4527 19.5645 17.3304 19.5236 17.2072 19.4819C17.3731 19.35 17.4987 19.3918 17.5759 19.6063Z" fill="white"/>
<path d="M26.6106 14.8792C26.5441 15.1471 26.3889 15.1404 26.1951 15.0194C26.3339 14.9726 26.4718 14.9259 26.6106 14.8792Z" fill="#002E78"/>
<path d="M15.2948 17.7451C15.4303 17.7576 15.6233 17.6733 15.6093 17.9379C15.5042 17.8736 15.3999 17.8094 15.2948 17.7451Z" fill="#002E78"/>
<path d="M23.538 19.0438C23.5651 18.9678 23.5922 18.8919 23.6201 18.8151C23.6546 18.8535 23.689 18.8927 23.7235 18.9311C23.662 18.9687 23.6004 19.0062 23.538 19.0429V19.0438Z" fill="#002E78"/>
<path d="M27.7806 17.5615C27.8176 17.438 27.8209 17.2677 28.027 17.3737C27.9449 17.4363 27.8628 17.4989 27.7806 17.5615Z" fill="#002E78"/>
<path d="M20.4645 19.0404C20.5852 18.8869 20.6197 18.8969 20.7101 19.1064C20.6279 19.0847 20.5458 19.0621 20.4645 19.0404Z" fill="#002E78"/>
<path d="M28.206 14.1113C28.1715 14.1881 28.1378 14.2657 28.1034 14.3425C28.0763 14.3066 28.0483 14.2707 28.0212 14.2357C28.0828 14.194 28.1444 14.1531 28.2052 14.1113H28.206Z" fill="#002E78"/>
<path d="M25.3198 18.6031C25.3732 18.462 25.4233 18.306 25.5653 18.5438C25.4832 18.5639 25.4011 18.5839 25.3198 18.6031Z" fill="#002E78"/>
<path d="M4.36093 24.0413C4.29934 24.0205 4.23776 23.9996 4.17618 23.9787C4.21231 23.9445 4.24844 23.9095 4.28456 23.8752C4.31002 23.9303 4.33547 23.9862 4.36093 24.0413Z" fill="white"/>
<path d="M14.321 13.987C14.2791 13.997 14.2381 14.007 14.1962 14.017C14.1978 13.9669 14.1987 13.9177 14.2003 13.8676C14.2405 13.9077 14.2808 13.9477 14.321 13.9878V13.987Z" fill="#002E78"/>
<path d="M25.443 15.2539L25.337 15.359C25.3108 15.324 25.2853 15.2889 25.259 15.2539C25.3206 15.2539 25.3822 15.2539 25.4438 15.2539H25.443Z" fill="#002E78"/>
<path d="M24.8288 23.9787C24.7672 23.9787 24.7056 23.9787 24.644 23.9787C24.6793 23.9437 24.7146 23.9086 24.7499 23.8736C24.7762 23.9086 24.8017 23.9437 24.8279 23.9787H24.8288Z" fill="white"/>
<path d="M18.3132 18.7942L18.4003 18.6899C18.4315 18.7324 18.4619 18.775 18.4931 18.8167C18.4331 18.8092 18.3732 18.8017 18.3132 18.7942Z" fill="#002E78"/>
<path d="M16.1414 14.89C16.0667 14.8608 15.992 14.8316 15.9181 14.8032C15.9928 14.8324 16.0675 14.8616 16.1414 14.89Z" fill="#002E78"/>
<path d="M14.0796 13.8034C13.9991 13.7933 13.9195 13.7842 13.839 13.7741C13.9039 13.598 13.9113 13.5989 14.0796 13.8034Z" fill="#002E78"/>
<path d="M23.0461 15.6286C23.0256 15.6586 23.0059 15.6887 22.9854 15.7187C22.9648 15.6895 22.9443 15.6595 22.923 15.6303C22.964 15.6303 23.0051 15.6294 23.0461 15.6286Z" fill="#002E78"/>
<path d="M21.3251 15.692C21.3045 15.7221 21.284 15.7513 21.2627 15.7813C21.2421 15.7513 21.2224 15.7212 21.2019 15.6912C21.243 15.6912 21.284 15.692 21.3251 15.6929V15.692Z" fill="#002E78"/>
<path d="M17.5127 18.6841C17.5266 18.659 17.5406 18.634 17.5554 18.6089C17.5628 18.634 17.5701 18.659 17.5775 18.6841C17.5636 18.6982 17.5496 18.7133 17.5357 18.7275C17.5283 18.7133 17.5209 18.6982 17.5127 18.6841Z" fill="#002E78"/>
<path d="M0.924569 22.7377C0.881871 22.7218 0.839173 22.706 0.795654 22.6901C0.838352 22.706 0.88105 22.7218 0.924569 22.7377Z" fill="#030303"/>
<path d="M0.305444 13.81C0.296412 13.8267 0.28738 13.8426 0.279169 13.8593C0.261104 13.8384 0.24304 13.8167 0.224976 13.7958C0.240577 13.7766 0.256178 13.7574 0.271779 13.7391C0.283274 13.7624 0.29477 13.7866 0.305444 13.81Z" fill="#FBFBFB"/>
<path d="M13.9326 22.2611C13.9006 22.2753 13.8694 22.2887 13.8374 22.3029C13.8357 22.2661 13.8341 22.2286 13.8316 22.1919C13.848 22.1793 13.8644 22.1668 13.8809 22.1543C13.8981 22.1902 13.9145 22.2261 13.9318 22.262L13.9326 22.2611Z" fill="#0E0E0E"/>
<path d="M13.9326 26.5718C13.9006 26.586 13.8694 26.5993 13.8374 26.6135C13.8357 26.5768 13.8341 26.5392 13.8316 26.5025C13.848 26.49 13.8644 26.4775 13.8809 26.465C13.8981 26.5009 13.9145 26.5367 13.9318 26.5726L13.9326 26.5718Z" fill="#0E0E0E"/>
<path d="M0.110837 22.1835L0.0837402 22.1852L0.0574646 22.1777C0.0738868 22.1618 0.0894879 22.146 0.10591 22.1301C0.107552 22.1476 0.109195 22.1651 0.110837 22.1835Z" fill="#656565"/>
<path d="M13.848 17.8837C13.8546 17.8837 13.8628 17.8812 13.8669 17.8837C13.8719 17.8887 13.8735 17.897 13.8768 17.9045H13.8382C13.8415 17.897 13.8448 17.8895 13.848 17.8828V17.8837Z" fill="#0E0E0E"/>
<path d="M13.8776 13.5847C13.8743 13.5914 13.871 13.5989 13.8669 13.6056C13.8579 13.5981 13.8481 13.5905 13.839 13.583C13.8456 13.5764 13.8522 13.5697 13.8587 13.5622C13.8645 13.5697 13.871 13.5772 13.8768 13.5839L13.8776 13.5847Z" fill="#0E0E0E"/>
<path d="M24.479 18.8351C24.465 18.8234 24.4519 18.8126 24.4379 18.8009C24.4551 18.8076 24.4732 18.8143 24.4904 18.8218L24.479 18.8351Z" fill="#002E78"/>
</g>
<defs>
<clipPath id="clip0_30_56">
<rect width="29" height="32" fill="white"/>
</clipPath>
</defs>
</svg>
