<svg width="33" height="35" viewBox="0 0 33 35" fill="none" xmlns="http://www.w3.org/2000/svg">
<g clip-path="url(#clip0_30_47)">
<path d="M4.02408 35C2.68454 31.5902 1.3459 28.1814 0 24.7543C1.07345 24.1609 2.13964 23.5721 3.24033 22.9642C3.28211 23.0727 3.31934 23.1693 3.35658 23.2659C3.37474 23.2896 3.39291 23.3142 3.41107 23.3379C3.82338 24.4052 4.23568 25.4734 4.64799 26.5408C4.66615 26.5645 4.68432 26.5882 4.70248 26.6128C5.16019 27.794 5.61791 28.9753 6.07563 30.1574C6.09379 30.1811 6.11195 30.2057 6.13012 30.2294C6.47068 31.1163 6.79671 32.0095 7.15997 32.8873C7.27804 33.1725 7.23808 33.3074 6.96926 33.4487C6.28087 33.8124 5.60701 34.2043 4.92498 34.5817C4.82145 34.6391 4.69431 34.66 4.60167 34.7284C4.50722 34.7986 4.44184 34.908 4.36373 35H4.02408Z" fill="#002E78"/>
<path d="M6.55146 26.5408C6.52421 26.4505 6.49697 26.3612 6.47063 26.271C6.45247 26.2473 6.4343 26.2236 6.41614 26.1999C6.38889 26.1096 6.36165 26.0194 6.3344 25.9301C6.31624 25.9064 6.29808 25.8827 6.27991 25.859C6.03289 25.2392 5.73411 24.6322 5.56519 23.9914C5.49708 23.7326 5.6669 23.3725 5.8113 23.1037C6.2454 22.2952 6.76942 21.5441 7.46779 20.9371C8.31511 20.2007 9.28231 19.7723 10.4221 19.7085C11.332 19.6574 12.1666 19.9072 13.014 20.1669C13.3473 20.269 13.7069 20.3182 14.0565 20.3255C15.8284 20.362 17.6002 20.3766 19.3711 20.4021C19.4674 20.4039 19.5627 20.4376 19.6581 20.4568C19.7253 20.4859 19.7925 20.5151 19.8588 20.5443C20.3538 21.1221 20.4427 22.0044 20.065 22.5869C19.8733 22.8822 19.6145 23.0225 19.2521 23.0198C18.0525 23.0089 16.8528 23.0089 15.6531 23.0198C15.2499 23.0234 14.803 23.0526 14.6568 23.5092C14.5742 23.7663 14.5833 24.1145 14.6922 24.3569C14.8203 24.6404 15.1055 24.8008 15.4778 24.799C16.8337 24.7908 18.1887 24.8281 19.5446 24.8154C19.8143 24.8126 20.0958 24.696 20.3483 24.5802C21.498 24.0552 22.6387 23.5111 23.783 22.9751C24.4069 22.6835 25.029 22.3872 25.6574 22.1056C26.552 21.7046 27.432 21.257 28.3547 20.938C29.1076 20.6783 29.9122 20.5625 30.725 20.7311C30.8331 20.753 30.9584 20.6892 31.0755 20.6646C31.1228 20.6874 31.17 20.7102 31.2172 20.7329C31.5115 20.815 31.8048 20.8997 32.0991 20.979C32.5313 21.0957 32.9037 21.3154 32.9745 21.7829C33.0662 22.3863 32.891 22.9077 32.3016 23.2085C32.1735 23.2203 31.9619 23.1073 32.0219 23.3981C30.1674 24.4563 28.3102 25.5072 26.4612 26.5745C25.7292 26.9974 25.0281 27.4723 24.2943 27.8925C23.3779 28.4175 22.4407 28.906 21.5171 29.4201C20.579 29.9414 19.659 30.4956 18.7091 30.9941C18.1596 31.2822 17.5575 31.3943 16.9218 31.3633C16.1871 31.3268 15.4497 31.3542 14.714 31.3542C12.766 31.3542 10.818 31.3478 8.87091 31.3606C8.57485 31.3624 8.39503 31.3077 8.30421 30.996C8.19433 30.6186 8.03449 30.2559 7.89645 29.8867C7.87828 29.863 7.86012 29.8384 7.84196 29.8147C7.43419 28.7811 7.02552 27.7466 6.61866 26.713C6.60685 26.682 6.60958 26.6465 6.60504 26.6128C6.58687 26.5891 6.56871 26.5645 6.55055 26.5408H6.55146Z" fill="#002E78"/>
<path fill-rule="evenodd" clip-rule="evenodd" d="M18 0C13.5817 0 10 3.58172 10 8C10 12.4183 13.5817 16 18 16C22.4183 16 26 12.4183 26 8C26 3.58172 22.4183 0 18 0ZM16.8306 12.9586C17.0454 12.9862 17.2431 13 17.4236 13C18.2916 13 19.0178 12.8619 19.6022 12.5856C20.1952 12.3094 20.6636 11.9365 21.0074 11.4669C21.3597 10.9972 21.6133 10.4678 21.768 9.87845C21.9227 9.27993 22 8.66298 22 8.02762H20.2339C20.2339 8.62615 20.1694 9.15562 20.0405 9.61602C19.9202 10.0764 19.7053 10.4494 19.3959 10.7348C19.0951 11.0203 18.674 11.2136 18.1326 11.3149V7.93094L20.1436 7.18508V5.99724L18.1326 6.74309V5.88674L20.1436 5.14088V3.93923L18.1326 4.68508V3H16.2505V5.37569L15 5.83149V7.03315L16.2505 6.57735V7.4337L15 7.8895V9.09116L16.2505 8.63536V12.8619C16.4223 12.9079 16.6157 12.9401 16.8306 12.9586Z" fill="#002E78"/>
</g>
<defs>
<clipPath id="clip0_30_47">
<rect width="33" height="35" fill="white"/>
</clipPath>
</defs>
</svg>
