<svg width="19" height="21" viewBox="0 0 19 21" fill="none" xmlns="http://www.w3.org/2000/svg">
<g clip-path="url(#clip0_109_1479)">
<path d="M6.40027 0.0761306C6.71176 0.141307 7.02593 0.196625 7.33419 0.274947C7.68656 0.36477 8.03301 0.475953 8.38269 0.575087C8.44509 0.592614 8.51126 0.598091 8.55968 0.606306C8.71408 0.705988 8.85879 0.816076 9.01642 0.898779C9.39515 1.09595 9.70448 1.36433 9.85834 1.77401C9.98261 2.10482 9.87878 2.40606 9.64853 2.65471C9.20632 3.13286 8.64737 3.42478 8.03839 3.59786C7.48428 3.75505 6.91511 3.85637 6.35132 3.97577C6.12268 4.02452 5.89189 4.07764 5.66003 4.09024C5.41041 4.10338 5.15864 4.06231 4.90794 4.06066C4.14887 4.05574 3.40055 3.97522 2.65493 3.82022C2.07285 3.69918 1.52089 3.50091 0.999059 3.2287C0.694569 3.06987 0.404065 2.86886 0.194257 2.56489C-0.13229 2.09168 -0.0150129 1.7291 0.292706 1.35885C0.716087 0.850034 1.32292 0.677508 1.90016 0.455141C2.13471 0.36477 2.39724 0.343957 2.62373 0.239894C2.94651 0.0914663 3.29673 0.201554 3.61682 0.082703C3.69859 0.0525794 3.78144 0.0273851 3.86375 0C3.93099 0 3.99824 0 4.06495 0C4.10476 0.010954 4.14403 0.0219081 4.18384 0.0328621C4.23763 0.0219081 4.29251 0.010954 4.34684 0C4.74924 0 5.15218 0 5.55458 0C5.63582 0.0115017 5.71705 0.0235512 5.79775 0.0350529C5.83809 0.0350529 5.8779 0.0350529 5.91825 0.0350529C6.0791 0.0487455 6.23942 0.0624381 6.40027 0.0755829V0.0761306Z" fill="white"/>
<path d="M6.40077 0.0761627C6.23992 0.0624702 6.0796 0.0487776 5.91875 0.0356328C5.91714 0.024131 5.9166 0.0120816 5.91767 0.000579834H6.40077C6.40077 0.0257741 6.40077 0.0509684 6.40077 0.0767104V0.0761627Z" fill="white"/>
<path d="M5.79875 0.0350529C5.71752 0.0235512 5.63629 0.0115017 5.55505 0C5.63575 0 5.71591 0 5.7966 0C5.79606 0.0115017 5.7966 0.0235512 5.79822 0.0350529H5.79875Z" fill="#A4A4A4"/>
<path d="M4.34733 0C4.293 0.010954 4.23866 0.0219081 4.18433 0.0328621C4.18486 0.0219081 4.1854 0.010954 4.18648 0C4.23974 0 4.29353 0 4.34733 0Z" fill="#A4A4A4"/>
<path d="M4.18593 0C4.18486 0.010954 4.18432 0.0219081 4.18378 0.0328621C4.14451 0.0219081 4.1047 0.010954 4.06543 0C4.10578 0 4.14613 0 4.18647 0H4.18593Z" fill="#D3D3D3"/>
<path d="M5.79881 0.0350529C5.7972 0.0235512 5.79666 0.0120494 5.7972 0H5.91824C5.91717 0.0115017 5.91824 0.0235512 5.91932 0.0350529C5.87897 0.0350529 5.83916 0.0350529 5.79881 0.0350529Z" fill="#D3D3D3"/>
<path d="M13.9205 5.63914C15.082 5.67036 16.2279 5.77881 17.328 6.19013C17.781 6.35937 18.2092 6.57845 18.5826 6.89229C18.8736 7.13766 19.0312 7.47942 18.9704 7.84584C18.9371 8.04849 18.745 8.24347 18.5858 8.40121C18.1371 8.8443 17.5755 9.07926 16.987 9.27096C16.4027 9.46101 15.812 9.59903 15.1993 9.63408C14.7361 9.66092 14.2734 9.70529 13.8097 9.71241C12.978 9.72446 12.1657 9.57439 11.3603 9.37447C10.8251 9.24138 10.3156 9.04366 9.85294 8.7375C9.51563 8.51403 9.18532 8.27743 9.08096 7.83817C9.01317 7.55282 9.08687 7.31676 9.27086 7.09987C9.74481 6.54121 10.3839 6.28215 11.0505 6.06635C11.7267 5.84727 12.4185 5.73061 13.1259 5.6972C13.3912 5.6846 13.6553 5.65886 13.92 5.63914H13.9205Z" fill="white"/>
<path d="M11.5152 12.8666C11.9123 12.9351 12.3077 13.0178 12.7068 13.0671C13.0156 13.1054 13.3298 13.1076 13.6418 13.1153C13.984 13.1235 14.3277 13.1388 14.6677 13.1142C15.0728 13.0851 15.4741 13.0134 15.8787 12.969C16.0621 12.9488 16.2456 12.9444 16.3828 12.7938C16.6071 12.905 16.797 12.7625 17.0014 12.7122C17.6309 12.5566 18.2043 12.2817 18.7316 11.9021C18.8009 11.8523 18.8703 11.8019 18.9408 11.7537C18.9494 11.7477 18.965 11.7531 18.9909 11.7531C18.9909 12.2696 19.0005 12.7866 18.9876 13.3031C18.9774 13.7117 18.717 13.9905 18.4233 14.2101C17.8025 14.6751 17.0924 14.9424 16.337 15.0875C15.8712 15.1774 15.4053 15.2683 14.9378 15.3504C14.8533 15.3652 14.7624 15.3351 14.6742 15.3346C14.2314 15.3324 13.7876 15.3499 13.3459 15.3291C12.8989 15.3083 12.4443 15.2935 12.0091 15.1993C11.4437 15.0771 10.8896 14.8942 10.3408 14.7058C10.1353 14.6351 9.97126 14.4467 9.76791 14.3635C9.46826 14.2413 9.35528 13.9554 9.16968 13.7358C9.10351 13.658 9.06586 13.531 9.0637 13.4258C9.05348 12.9137 9.05886 12.4011 9.06048 11.889C9.06048 11.8528 9.07554 11.8167 9.08953 11.7542C9.71142 12.274 10.4151 12.5676 11.158 12.7751C11.1946 12.7856 11.2344 12.7828 11.2731 12.7856C11.3538 12.8129 11.434 12.8398 11.5147 12.8672L11.5152 12.8666Z" fill="white"/>
<path d="M9.93362 3.2561C9.93362 3.37331 9.93362 3.45821 9.93362 3.54255C9.93362 3.87063 9.91533 4.19979 9.93792 4.52622C9.97773 5.10953 9.70498 5.50716 9.25901 5.82209C8.7404 6.18795 8.15886 6.40375 7.55526 6.55437C7.12703 6.66117 6.6902 6.75483 6.2523 6.79809C5.66483 6.85615 5.07199 6.8797 4.4813 6.88299C3.74536 6.88682 3.02556 6.74387 2.31436 6.55656C1.70054 6.39498 1.11684 6.1655 0.60577 5.77882C0.430392 5.64628 0.269001 5.4847 0.136122 5.30944C0.0618827 5.21195 0.0312184 5.05859 0.0285286 4.92988C0.0172312 4.38437 0.0236869 3.83831 0.0236869 3.31361C0.360456 3.51298 0.693459 3.74356 1.0539 3.91499C1.63759 4.19267 2.2568 4.37287 2.89644 4.46872C3.27894 4.52622 3.66144 4.58264 4.04501 4.62919C4.11548 4.63796 4.19134 4.5914 4.26558 4.57716C4.30646 4.56949 4.35165 4.56621 4.39092 4.57607C4.50013 4.60455 4.60719 4.66918 4.71478 4.66918C5.09405 4.66918 5.47493 4.66315 5.85205 4.62865C6.22056 4.59524 6.59391 4.55525 6.95058 4.46214C7.33846 4.36027 7.74785 4.36684 8.12174 4.20965C8.48971 4.05465 8.86199 3.90623 9.21866 3.72658C9.42578 3.62252 9.606 3.46204 9.79967 3.3284C9.82979 3.30759 9.86368 3.29389 9.9347 3.2561H9.93362Z" fill="white"/>
<path d="M9.21924 19.3996C9.16598 19.2917 9.06968 19.1844 9.06699 19.0748C9.053 18.5386 9.06376 18.0019 9.06592 17.4651C9.0869 17.4558 9.10734 17.447 9.12832 17.4377L9.17566 17.4662C9.19019 17.4761 9.20471 17.4865 9.21924 17.4963C9.74376 17.906 10.3339 18.1886 10.9676 18.3606C11.4685 18.4964 11.9774 18.629 12.4912 18.6832C13.1712 18.755 13.8608 18.7966 14.543 18.7659C15.5151 18.7221 16.4781 18.5687 17.4061 18.244C17.9526 18.0523 18.4513 17.7746 18.9113 17.4213C18.9264 17.4098 18.9452 17.4021 18.9807 17.383C18.985 17.4514 18.9914 17.5084 18.9914 17.5653C18.9925 17.9411 18.9715 18.3179 18.9968 18.6914C19.0377 19.2988 18.723 19.6746 18.2587 19.9703C17.5158 20.443 16.6959 20.6779 15.8395 20.8368C14.99 20.994 14.1363 21.0279 13.2841 20.9819C12.1953 20.9233 11.1312 20.6988 10.1424 20.2058C9.79755 20.0338 9.45325 19.8389 9.25313 19.4746C9.24183 19.45 9.23107 19.4248 9.21978 19.4002L9.21924 19.3996Z" fill="white"/>
<path d="M9.12828 14.6089C9.46666 14.823 9.80505 15.0372 10.1434 15.2513C10.1709 15.2617 10.1988 15.2727 10.2263 15.2831C10.2655 15.3001 10.3043 15.317 10.3436 15.3346C10.3715 15.345 10.3995 15.3554 10.4275 15.3658C10.7599 15.4688 11.0886 15.5849 11.4254 15.6698C11.7503 15.7519 12.0817 15.8154 12.4137 15.8604C12.6176 15.8877 12.8279 15.8653 13.0479 15.8653C13.1179 15.8888 13.2061 15.942 13.2949 15.9436C13.7301 15.9524 14.1653 15.9518 14.6005 15.9447C14.7151 15.9425 14.8281 15.896 14.9432 15.8856C15.1078 15.8713 15.2757 15.8845 15.4387 15.8626C15.6759 15.8313 15.9099 15.7788 16.1456 15.7355C16.1859 15.7355 16.2263 15.7355 16.2666 15.7355C16.6023 15.6489 16.9417 15.5739 17.2731 15.4731C17.8203 15.3066 18.3233 15.0459 18.7751 14.6866C18.8349 14.639 18.9026 14.6012 18.9677 14.5585C18.9677 15.1418 18.9893 15.7119 18.9591 16.2794C18.9419 16.6003 18.695 16.821 18.4588 17.004C17.7718 17.5358 16.9713 17.785 16.1364 17.9613C15.174 18.1645 14.2003 18.2111 13.2303 18.1459C12.5261 18.0988 11.824 17.9416 11.1338 17.7762C10.5873 17.6453 10.0687 17.4065 9.61837 17.0516C9.27407 16.7805 9.01746 16.4623 9.05297 15.9655C9.08471 15.5241 9.06319 15.0788 9.06534 14.6351C9.08632 14.6258 9.10676 14.6171 9.12774 14.6078L9.12828 14.6089Z" fill="white"/>
<path d="M13.9716 10.2979C14.3207 10.2842 14.6693 10.2705 15.0185 10.2574C15.0319 10.2765 15.0454 10.2963 15.0593 10.3154C15.0728 10.2957 15.0857 10.276 15.0992 10.2563C15.5823 10.1741 16.0653 10.0925 16.549 10.0104C16.5662 10.0334 16.5829 10.0564 16.6001 10.0794L16.6695 10.0104C16.8341 9.95887 16.9982 9.90739 17.1628 9.85645C17.2892 9.93642 17.3914 9.94025 17.435 9.76444C17.7433 9.62368 18.0515 9.48347 18.3592 9.34271C18.377 9.36626 18.3953 9.38981 18.413 9.41281C18.4356 9.36243 18.4577 9.31149 18.4803 9.2611C18.6449 9.15211 18.809 9.04311 18.9682 8.93741C18.9682 9.47306 18.9752 10.012 18.9661 10.5509C18.9591 10.9705 18.6573 11.1868 18.363 11.4021C18.228 11.3325 18.2258 11.4442 18.2016 11.5253C17.8928 11.6754 17.5846 11.826 17.2758 11.9761C17.1165 11.8988 16.9885 11.918 16.9132 12.0987L16.7507 12.1699C16.6577 12.0144 16.6248 12.1163 16.5899 12.2088C16.4086 12.2565 16.2278 12.3047 16.0465 12.3523C16.0352 12.348 16.0234 12.343 16.0121 12.3386C16.0212 12.3463 16.0298 12.3534 16.039 12.3611C16.011 12.3819 15.9841 12.4186 15.9556 12.4202C15.8184 12.4268 15.6812 12.4241 15.5441 12.4246C15.5215 12.3994 15.4989 12.3737 15.4763 12.3485C15.4585 12.3983 15.4408 12.4482 15.4225 12.4986C15.3127 12.5095 15.2035 12.5281 15.0938 12.5298C14.9986 12.5314 14.9028 12.5051 14.807 12.5068C14.3944 12.5145 13.9823 12.5281 13.5697 12.5396C13.51 12.4016 13.4874 12.3956 13.4089 12.4964C12.9785 12.4476 12.5476 12.3983 12.1172 12.3496C12.0967 12.3217 12.0768 12.2937 12.0564 12.2663L11.9994 12.3348C11.8385 12.3107 11.6777 12.2866 11.5174 12.2625C11.5125 12.2461 11.5077 12.2296 11.5028 12.2132C11.4937 12.2296 11.4845 12.2461 11.4749 12.2625C11.1236 12.1354 10.7723 12.0084 10.421 11.8813C10.3978 11.8649 10.3752 11.849 10.3521 11.8326L10.2278 11.7723C10.2375 11.5987 10.1111 11.6535 10.0218 11.6458C9.60164 11.4448 9.26057 11.1622 9.08627 10.7081C9.07228 10.672 9.06152 10.632 9.06152 10.5937C9.0626 10.0761 9.06529 9.55796 9.06798 9.04038C9.1207 9.04695 9.17288 9.05297 9.2256 9.05955C9.25196 9.07324 9.27833 9.08693 9.30469 9.10117C9.30361 9.13403 9.30307 9.16635 9.302 9.19921C9.32943 9.19264 9.35633 9.18607 9.38377 9.17949C9.47953 9.23536 9.57528 9.29177 9.6705 9.34764C9.69525 9.35914 9.71946 9.37064 9.74421 9.38214C9.97284 9.49333 10.2009 9.60451 10.4296 9.71515C10.4785 9.73432 10.5275 9.75349 10.5759 9.77211C10.6475 9.79675 10.7195 9.82195 10.7911 9.84659C10.8185 9.85645 10.846 9.86631 10.8734 9.87617C11.1757 9.94628 11.4775 10.018 11.7799 10.0859C12.4362 10.2333 13.0979 10.3231 13.772 10.2913C13.8118 10.2897 13.8516 10.2957 13.892 10.2979C13.9054 10.3176 13.9183 10.3373 13.9318 10.3571C13.9452 10.3373 13.9587 10.3182 13.9726 10.2984L13.9716 10.2979Z" fill="white"/>
<path d="M0.0172685 17.3627C0.461631 17.7642 0.940962 18.0232 1.46441 18.2012C1.7151 18.2867 1.9631 18.4094 2.22079 18.439C2.63019 18.4855 3.00784 18.6695 3.41777 18.692C3.64695 18.7046 3.87666 18.6942 4.08001 18.6942C4.22204 18.7249 4.34308 18.7736 4.46412 18.7731C4.84285 18.7709 5.23019 18.7944 5.59762 18.721C5.84939 18.6706 6.08126 18.7681 6.3298 18.7046C6.72736 18.6033 7.1416 18.5737 7.54292 18.4855C7.84365 18.4198 8.13469 18.3097 8.46016 18.21C8.42519 18.9023 8.40744 19.5946 8.99113 20.1094C8.50104 20.4019 7.98621 20.5646 7.45738 20.7108C6.39489 21.0049 5.31304 21.0192 4.22957 20.983C3.76261 20.9671 3.29942 20.8483 2.833 20.7908C2.25468 20.7201 1.72371 20.4961 1.20241 20.2595C0.805394 20.0793 0.411062 19.8602 0.17328 19.461C0.0947361 19.3295 0.0291039 19.1674 0.0242621 19.0168C0.00650914 18.48 0.0172685 17.9422 0.0172685 17.3633V17.3627Z" fill="white"/>
<path d="M0.0128655 6.08168C0.629378 6.59269 1.30345 6.88516 2.02003 7.09383C2.59942 7.26253 3.18581 7.38302 3.78833 7.42081C4.23808 7.44875 4.68836 7.50297 5.1381 7.4953C5.61797 7.48708 6.11075 7.47723 6.57179 7.36057C6.9134 7.27458 7.26792 7.31401 7.60038 7.17928C7.92908 7.04618 8.27392 6.95527 8.61284 6.84792C8.63598 6.8408 8.66395 6.85011 8.72743 6.85449C8.44069 7.20118 8.4649 7.59717 8.46598 7.98933C8.46705 8.24894 8.46598 8.508 8.46598 8.76761C8.46598 9.10554 8.43209 9.14443 8.09854 9.22494C7.55089 9.35749 7.00485 9.49551 6.45666 9.62586C6.33616 9.65434 6.21081 9.66146 6.08708 9.67515C5.57009 9.73047 5.04933 9.74745 4.53396 9.70802C3.94112 9.66311 3.35365 9.55137 2.7635 9.47141C2.2137 9.39747 1.69133 9.22713 1.2007 8.973C0.76925 8.75009 0.341027 8.50417 0.107548 8.03917C0.0521372 7.92908 0.020397 7.79434 0.0182451 7.67002C0.0085617 7.15353 0.0139414 6.63705 0.0139414 6.08168H0.0128655Z" fill="white"/>
<path d="M0.158645 11.8408C0.509401 12.1185 0.88329 12.3452 1.31851 12.469C1.67787 12.5709 2.02002 12.7445 2.38261 12.8261C2.88454 12.9389 3.39668 13.0249 3.90883 13.0682C4.48607 13.1169 5.06869 13.1076 5.64862 13.1175C5.76321 13.1197 5.89824 13.1345 5.93106 13.0019C6.80741 13.0704 7.62351 12.8212 8.46597 12.5621C8.46597 12.7549 8.46597 12.9296 8.46597 13.1043C8.46597 13.6027 8.46973 14.1011 8.46166 14.5996C8.46059 14.6631 8.40894 14.7688 8.3616 14.7819C7.76177 14.9463 7.1657 15.1511 6.55402 15.2371C5.89932 15.3291 5.22847 15.3116 4.56461 15.3313C4.23107 15.3411 3.88946 15.3707 3.56453 15.3138C3.05077 15.2234 2.54723 15.0706 2.04154 14.938C1.49873 14.7956 0.994649 14.5568 0.548673 14.2167C0.220511 13.967 -0.0183471 13.6509 0.00639949 13.1816C0.0316841 12.7067 0.0117792 12.2297 0.0117792 11.7247C0.0612724 11.7652 0.0881708 11.7871 0.115069 11.8096C0.129594 11.82 0.144658 11.8309 0.159183 11.8413L0.158645 11.8408Z" fill="white"/>
<path d="M7.00655 10.081C7.09693 10.0777 7.19161 10.0903 7.27769 10.069C7.66502 9.97366 8.05021 9.86904 8.45476 9.76279C8.45853 9.8192 8.46552 9.87671 8.46552 9.93422C8.4666 10.4874 8.46552 11.0406 8.46552 11.5938C8.46552 11.93 8.43486 11.9706 8.12068 12.0527C7.73873 12.153 7.35892 12.2641 6.97373 12.3507C6.72573 12.4065 6.47073 12.4323 6.21735 12.4619C6.02691 12.4843 5.82463 12.4558 5.64603 12.5117C5.28559 12.6251 4.92784 12.5287 4.57062 12.5353C4.21287 12.5413 3.85028 12.4854 3.4963 12.4186C2.93896 12.3134 2.37679 12.2121 1.83613 12.0434C1.2718 11.8676 0.727372 11.6195 0.310984 11.1627C0.121618 10.9546 -0.0144878 10.7339 0.00326519 10.4184C0.0307016 9.92327 0.0107968 9.42486 0.0107968 8.8788C0.0742771 8.96041 0.110321 9.00696 0.146903 9.05406C0.158738 9.06776 0.170574 9.082 0.182409 9.09569C0.188327 9.08474 0.194244 9.07433 0.199624 9.06337C0.839807 9.54645 1.57145 9.81975 2.33698 9.99995C2.86365 10.1237 3.38924 10.2585 3.93905 10.2541C4.55233 10.2492 5.16616 10.299 5.77837 10.2826C6.14634 10.2727 6.51162 10.1807 6.87851 10.1254C6.92101 10.1106 6.96297 10.0963 7.00547 10.0816L7.00655 10.081Z" fill="white"/>
<path d="M1.08561 15.242C1.35298 15.3411 1.61982 15.4408 1.88719 15.54C1.91516 15.5504 1.94367 15.5613 1.97165 15.5717C2.22665 15.6265 2.48164 15.6818 2.73664 15.7366C2.77699 15.7503 2.81734 15.764 2.85768 15.7777C3.12237 15.8204 3.38705 15.8631 3.65119 15.9053C3.6641 15.9075 3.67809 15.9069 3.691 15.9075C4.33441 15.9212 4.97836 15.9518 5.62123 15.942C5.99996 15.9359 6.38353 15.8938 6.75527 15.8182C7.29754 15.7081 7.83175 15.5531 8.36918 15.4178C8.39393 15.4118 8.42136 15.4173 8.46548 15.4173V17.0741C8.46548 17.3972 8.30947 17.6114 7.99744 17.7165C7.97323 17.7247 7.95279 17.7439 7.93073 17.7582C7.9033 17.7675 7.87532 17.7773 7.84789 17.7866C7.51327 17.8639 7.18027 17.9504 6.8435 18.0161C6.59334 18.0649 6.33942 18.1059 6.0855 18.1174C5.49911 18.1432 4.91058 18.1821 4.3258 18.1552C3.19553 18.1038 2.09162 17.9022 1.06732 17.3775C0.717104 17.1984 0.386253 16.9925 0.171603 16.6397C0.055402 16.4486 -0.00754038 16.2542 0.00483292 16.0187C0.0268897 15.5964 0.0102126 15.1725 0.0123645 14.7491C0.0123645 14.6839 0.0290415 14.6193 0.037649 14.5546L0.0548641 14.5596L0.0726171 14.5585C0.222173 14.6691 0.371728 14.7803 0.521283 14.8909C0.549258 14.9013 0.577232 14.9117 0.605745 14.9222C0.741851 15.018 0.877957 15.1138 1.01406 15.2097C1.03773 15.2206 1.06194 15.2316 1.08561 15.2426V15.242Z" fill="white"/>
<path d="M16.9127 12.0987C16.988 11.918 17.1161 11.8988 17.2753 11.9761C17.1543 12.0171 17.0332 12.0577 16.9127 12.0987Z" fill="white"/>
<path d="M11.5152 12.8666C11.4345 12.8392 11.3544 12.8124 11.2737 12.785C11.3824 12.6985 11.4647 12.7259 11.5152 12.8666Z" fill="white"/>
<path d="M17.4346 9.76443C17.391 9.94025 17.2893 9.93587 17.1624 9.85645C17.2533 9.82578 17.3436 9.79511 17.4346 9.76443Z" fill="white"/>
<path d="M10.0208 11.6453C10.1095 11.6535 10.2359 11.5981 10.2268 11.7718C10.1579 11.7296 10.0896 11.6874 10.0208 11.6453Z" fill="white"/>
<path d="M15.4214 12.4975C15.4391 12.4476 15.4569 12.3978 15.4752 12.3474C15.4978 12.3726 15.5204 12.3983 15.543 12.4235C15.5026 12.4482 15.4623 12.4728 15.4214 12.4969V12.4975Z" fill="white"/>
<path d="M18.2012 11.5247C18.2254 11.4437 18.2275 11.332 18.3626 11.4015C18.3088 11.4426 18.255 11.4837 18.2012 11.5247Z" fill="white"/>
<path d="M13.4078 12.4953C13.4869 12.3945 13.5095 12.4011 13.5687 12.5385C13.5149 12.5243 13.4611 12.5095 13.4078 12.4953Z" fill="white"/>
<path d="M18.4798 9.26054C18.4572 9.31093 18.4352 9.36187 18.4126 9.41226C18.3948 9.38871 18.3765 9.36516 18.3588 9.34215C18.3991 9.31477 18.4395 9.28793 18.4793 9.26054H18.4798Z" fill="white"/>
<path d="M16.5889 12.2083C16.6238 12.1157 16.6567 12.0133 16.7497 12.1694C16.6959 12.1825 16.6421 12.1957 16.5889 12.2083Z" fill="white"/>
<path d="M2.85713 15.7771C2.81678 15.7634 2.77643 15.7497 2.73608 15.736C2.75975 15.7136 2.78343 15.6906 2.8071 15.6681C2.82377 15.7043 2.84045 15.741 2.85713 15.7771Z" fill="white"/>
<path d="M9.38267 9.17894C9.35524 9.18551 9.32834 9.19208 9.3009 9.19865C9.30198 9.16579 9.30252 9.13348 9.30359 9.10062C9.32995 9.12691 9.35631 9.1532 9.38267 9.17949V9.17894Z" fill="white"/>
<path d="M16.6696 10.0104L16.6002 10.0794C16.583 10.0564 16.5663 10.0334 16.5491 10.0104C16.5894 10.0104 16.6298 10.0104 16.6701 10.0104H16.6696Z" fill="white"/>
<path d="M16.2672 15.736C16.2268 15.736 16.1865 15.736 16.1461 15.736C16.1693 15.713 16.1924 15.69 16.2155 15.667C16.2327 15.69 16.2494 15.713 16.2666 15.736H16.2672Z" fill="white"/>
<path d="M11.9983 12.3337L12.0553 12.2652C12.0758 12.2932 12.0957 12.3211 12.1161 12.3485C12.0768 12.3436 12.0376 12.3386 11.9983 12.3337Z" fill="white"/>
<path d="M10.5754 9.77156C10.5264 9.75239 10.4775 9.73322 10.4291 9.7146C10.478 9.73377 10.527 9.75294 10.5754 9.77156Z" fill="white"/>
<path d="M9.22452 9.05845C9.1718 9.05188 9.11962 9.04585 9.06689 9.03928C9.10939 8.92372 9.11424 8.92426 9.22452 9.05845Z" fill="white"/>
<path d="M15.0991 10.2563C15.0857 10.276 15.0728 10.2957 15.0593 10.3154C15.0459 10.2963 15.0324 10.2765 15.0184 10.2574C15.0453 10.2574 15.0722 10.2568 15.0991 10.2563Z" fill="white"/>
<path d="M13.9716 10.2979C13.9581 10.3176 13.9447 10.3368 13.9307 10.3565C13.9172 10.3368 13.9043 10.3171 13.8909 10.2973C13.9178 10.2973 13.9447 10.2979 13.9716 10.2984V10.2979Z" fill="white"/>
<path d="M11.4738 12.2614C11.4829 12.245 11.492 12.2285 11.5017 12.2121C11.5066 12.2285 11.5114 12.245 11.5163 12.2614C11.5071 12.2707 11.498 12.2806 11.4888 12.2899C11.484 12.2806 11.4791 12.2707 11.4738 12.2614Z" fill="white"/>
<path d="M0.605701 14.9216C0.577727 14.9112 0.549753 14.9008 0.52124 14.8904C0.549215 14.9008 0.577189 14.9112 0.605701 14.9216Z" fill="#030303"/>
<path d="M0.200182 9.06282C0.194264 9.07377 0.188347 9.08418 0.182967 9.09514C0.171132 9.08144 0.159296 9.0672 0.147461 9.05351C0.157682 9.04091 0.167904 9.02832 0.178125 9.01627C0.185657 9.0316 0.193188 9.04749 0.200182 9.06282Z" fill="#FBFBFB"/>
<path d="M9.1283 14.6089C9.10732 14.6182 9.08688 14.6269 9.0659 14.6362C9.06482 14.6121 9.06375 14.5875 9.06213 14.5634C9.07289 14.5552 9.08365 14.547 9.09441 14.5388C9.10571 14.5623 9.11647 14.5859 9.12777 14.6094L9.1283 14.6089Z" fill="#0E0E0E"/>
<path d="M9.1283 17.4378C9.10732 17.4471 9.08688 17.4558 9.0659 17.4651C9.06482 17.441 9.06375 17.4164 9.06213 17.3923C9.07289 17.3841 9.08365 17.3759 9.09441 17.3676C9.10571 17.3912 9.11647 17.4147 9.12777 17.4383L9.1283 17.4378Z" fill="#0E0E0E"/>
<path d="M0.0725657 14.5579L0.0548127 14.559L0.0375977 14.5541C0.048357 14.5437 0.0585785 14.5333 0.0693378 14.5229C0.0704138 14.5344 0.0714897 14.5459 0.0725657 14.5579Z" fill="#656565"/>
<path d="M9.07286 11.7362C9.07717 11.7362 9.08255 11.7345 9.08524 11.7362C9.08846 11.7396 9.08954 11.7454 9.09169 11.7505H9.06641C9.06856 11.7454 9.07071 11.7402 9.07286 11.7356V11.7362Z" fill="#0E0E0E"/>
<path d="M9.09218 8.91495C9.09003 8.91933 9.08788 8.92426 9.08519 8.92864C9.07927 8.92371 9.07281 8.91878 9.06689 8.91385C9.0712 8.90947 9.0755 8.90509 9.07981 8.90016C9.08357 8.90509 9.08788 8.91002 9.09164 8.9144L9.09218 8.91495Z" fill="#0E0E0E"/>
<path d="M16.0379 12.3605C16.0287 12.3529 16.0201 12.3458 16.011 12.3381C16.0223 12.3425 16.0341 12.3469 16.0454 12.3518L16.0379 12.3605Z" fill="white"/>
</g>
<defs>
<clipPath id="clip0_109_1479">
<rect width="19" height="21" fill="white"/>
</clipPath>
</defs>
</svg>
