<svg width="33" height="34" viewBox="0 0 33 34" fill="none" xmlns="http://www.w3.org/2000/svg">
<g clip-path="url(#clip0_30_7)">
<path d="M17.572 19.5606C17.5622 19.565 17.5462 19.5668 17.5427 19.5739C17.2521 20.1526 16.7323 20.11 16.1948 20.1092C11.5639 20.0985 6.93212 20.103 2.30123 20.1021C2.20172 20.1021 2.10221 20.0941 2.00358 20.0897C1.95649 20.0728 1.91029 20.056 1.8632 20.0391C1.02711 19.8105 0.525107 19.2354 0.212353 18.4618C0.173259 18.3643 0.115506 18.2748 0.0666379 18.1808C0.10129 18.1525 0.13683 18.1241 0.171482 18.0958C0.114617 18.0798 0.0568644 18.0647 0 18.0488C0.0355402 17.8202 0.100401 17.5924 0.10129 17.3638C0.104844 16.5751 0.0310977 15.7819 0.0915161 14.9977C0.157266 14.1407 0.681484 13.3813 1.52645 13.0047C1.66328 12.9435 1.78945 12.8584 1.93872 12.7751H4.71264C6.03473 10.1397 7.36571 7.48732 8.69492 4.83499C8.71358 4.79777 8.71891 4.75435 8.73046 4.71358C8.95259 4.27138 9.17382 3.82918 9.39595 3.38697C9.81266 2.57789 10.2471 1.77679 10.6399 0.956186C10.83 0.55652 11.0441 0.203821 11.4511 0C11.6279 0 11.8056 0 11.9833 0C12.041 0.0425365 12.0961 0.089504 12.1583 0.125837C12.6914 0.434227 12.8576 0.88352 12.6399 1.37978C12.3698 1.99745 12.0348 2.58675 11.7283 3.18847C11.6759 3.22037 11.5977 3.23987 11.5737 3.28595C11.3391 3.73613 11.1125 4.19074 10.8904 4.64623C10.8753 4.67725 10.9162 4.73574 10.9313 4.78093C10.6923 5.26833 10.4515 5.75484 10.2134 6.24312C9.62252 7.45542 9.03344 8.66771 8.44347 9.88C8.3102 10.1459 8.17781 10.4108 8.04453 10.6767C7.68735 11.3697 7.32929 12.0618 6.95522 12.7876H25.023C24.7529 12.2709 24.4917 11.7729 24.2313 11.2757C24.1425 11.0985 24.0536 10.9213 23.9648 10.7449C23.9426 10.7006 23.9204 10.6563 23.899 10.6129C23.7658 10.347 23.6325 10.082 23.4992 9.8162C23.1518 9.10725 22.8044 8.39831 22.4561 7.69025C21.9568 6.67558 21.4565 5.66091 20.9563 4.64712C21.0007 4.34848 20.9314 4.10655 20.624 3.98337C20.1833 3.11669 19.7302 2.2571 19.3135 1.37889C19.2326 1.20963 19.2815 0.970365 19.2966 0.765658C19.3277 0.356244 19.6689 0.228634 19.9674 0.0673495C20.122 0.0451951 20.2766 0.0221545 20.4312 0C20.4534 0 20.4756 0 20.4978 0C20.9954 0.186097 21.1864 0.625642 21.3961 1.0581C21.8706 2.03555 22.3566 3.0068 22.8373 3.98071C22.9643 4.2253 23.0905 4.469 23.2175 4.71358C23.7178 5.72826 24.218 6.74204 24.7173 7.75672C25.0656 8.46477 25.413 9.17372 25.7605 9.88266C25.748 9.92874 25.7107 9.98723 25.7267 10.0191C25.9479 10.4737 26.1745 10.9257 26.4073 11.3741C26.4322 11.4211 26.5077 11.4423 26.5592 11.4751C26.7467 11.8314 26.9475 12.1823 27.1172 12.5474C27.2052 12.7353 27.2958 12.8203 27.5224 12.8124C28.1301 12.7911 28.7396 12.8053 29.3491 12.8053C29.5455 12.8053 29.7418 12.8035 29.9382 12.8026C29.9809 12.8035 30.0226 12.8044 30.0653 12.8053C30.171 12.8717 30.2687 12.9577 30.3825 13.0011C31.2283 13.3246 31.8672 14.2037 31.8734 15.1226C31.8787 15.9166 31.8716 16.7115 31.8769 17.5056C31.8769 17.6314 31.9462 17.7608 31.9293 17.8822C31.9071 18.0452 31.8778 18.2606 31.7676 18.3439C31.6664 18.4201 31.4851 18.4724 31.287 18.3146C30.8249 17.9469 30.3052 17.65 29.8085 17.3248C29.8467 17.0713 29.6388 17.0261 29.4771 16.9623C29.43 16.9437 29.3447 17.0244 29.2772 17.0589C28.5486 16.825 27.8271 16.5698 27.0897 16.3668C26.6978 16.2596 26.282 16.21 25.8742 16.1949C24.8675 16.1595 23.8555 16.1409 22.8701 16.389C22.3148 16.529 21.7764 16.7399 21.2309 16.918C21.1189 16.9783 21.0069 17.0394 20.8959 17.0997C20.4392 17.3478 19.9567 17.5578 19.532 17.8521C18.9723 18.2393 18.4578 18.6913 17.9274 19.1193C17.8794 19.1583 17.851 19.2221 17.8145 19.2735L17.803 19.2859C17.7435 19.3594 17.6839 19.4321 17.6244 19.5057C17.6066 19.5234 17.5889 19.542 17.5711 19.5597L17.572 19.5606Z" fill="#002E78"/>
<path d="M19.9692 0.0673495C19.9736 0.0522845 19.9798 0.0372195 19.9816 0.0221545C19.9816 0.015065 19.9718 0.0079756 19.9674 0C20.1229 0 20.2775 0 20.433 0C20.2784 0.0221545 20.1238 0.0451951 19.9692 0.0673495Z" fill="#1C1C1C"/>
<path d="M20.0323 19.9178C20.6356 19.5376 21.2388 19.1583 21.8421 18.7781C21.8821 18.7595 21.9221 18.7409 21.963 18.7232C22.2775 18.608 22.592 18.4937 22.9075 18.3785C22.9705 18.3546 23.0327 18.3315 23.0958 18.3076C23.7382 18.2393 24.3815 18.1702 25.0239 18.102C25.1572 18.1241 25.2904 18.1463 25.4228 18.1685C25.6503 18.1525 25.8777 18.1365 26.0928 18.1206C26.4695 18.2269 26.8542 18.3342 27.2389 18.4441C28.4251 18.7826 29.4789 19.3488 30.3993 20.1792C31.1928 20.8961 31.7987 21.7397 32.2785 22.6844C32.3159 22.7305 32.3532 22.7775 32.3905 22.8235C32.53 23.2959 32.6997 23.762 32.8019 24.2432C32.9893 25.1276 33.0533 26.0156 32.9547 26.9283C32.8161 28.2115 32.3958 29.3733 31.677 30.4323C30.5282 32.124 28.9466 33.2246 26.9768 33.7554C26.1052 33.9903 25.1963 34.0532 24.3051 33.9566C22.752 33.7891 21.3401 33.2344 20.1158 32.2339C18.8736 31.2201 17.9949 29.9706 17.5036 28.4437C17.1979 27.4937 17.0362 26.5207 17.1171 25.5317C17.2406 24.0137 17.6733 22.5878 18.6577 21.3853C19.0638 20.889 19.5258 20.4388 19.9621 19.9674C19.9861 19.9506 20.01 19.9337 20.0349 19.9169L20.0323 19.9178ZM26.0199 23.1594C25.9799 23.069 25.9399 22.9795 25.9 22.8891C25.7516 22.4877 25.3775 22.4319 25.0363 22.3707C24.7253 22.3149 24.2082 22.6481 24.1629 22.9024C24.1114 23.1887 24.075 23.4811 24.0634 23.7718C24.0465 24.1776 24.059 24.5844 24.059 25.0133C23.5427 25.0133 23.0567 25 22.5716 25.0195C22.3513 25.0284 22.1176 25.0647 21.9159 25.1498C21.5418 25.3084 21.2904 25.8073 21.3668 26.1529C21.4743 26.6385 21.8955 27.001 22.3628 27.0028C22.9226 27.0045 23.4814 27.0028 24.0892 27.0028C24.0892 27.6523 24.0714 28.2585 24.0954 28.8629C24.1114 29.2616 24.5388 29.64 24.9341 29.6569C25.5312 29.6817 26.0421 29.282 26.0528 28.5828C26.0608 28.0662 26.0546 27.5486 26.0546 27.0036C26.5672 27.0036 27.0532 27.0249 27.5357 26.9948C27.7827 26.9797 28.0377 26.9017 28.2643 26.7989C28.5681 26.6607 28.7494 26.1857 28.6845 25.8215C28.6259 25.4936 28.3042 25.132 27.9986 25.0851C27.7418 25.0452 27.4806 25.0248 27.2203 25.0168C26.8382 25.0062 26.4553 25.0142 26.0528 25.0142C26.0528 24.432 26.0528 23.8923 26.0528 23.3526C26.0421 23.2888 26.0314 23.225 26.0208 23.1612L26.0199 23.1594Z" fill="#002E78"/>
<path d="M16.4382 30.9232C16.7003 31.3255 16.9242 31.7588 17.2317 32.1222C17.7674 32.7567 18.3539 33.3486 18.9296 33.969H18.6169C15.4929 33.969 12.3689 33.9769 9.24489 33.9619C8.62649 33.9592 8.02319 33.7465 7.54251 33.3832C6.59803 32.6707 6.05693 31.6746 5.79482 30.5244C5.7344 30.2585 5.63311 30.0015 5.5798 29.749C5.5336 29.3732 5.48829 28.9966 5.44031 28.6085H15.5355C15.6688 29.3812 15.9958 30.0822 16.321 30.7831L16.4373 30.9223L16.4382 30.9232Z" fill="#002E78"/>
<path d="M15.946 22.1119C15.2858 23.5413 15.1241 25.0408 15.1001 26.5845H5.07869C4.82458 25.1099 4.5678 23.6229 4.30746 22.1119H15.946Z" fill="#002E78"/>
<path d="M26.561 11.4751C26.5095 11.4423 26.4339 11.421 26.4091 11.3741C26.1763 10.9257 25.9497 10.4737 25.7285 10.0191C25.7125 9.98631 25.7498 9.92871 25.7622 9.88263C26.0288 10.4135 26.2944 10.9443 26.561 11.4751Z" fill="#002E78"/>
<path d="M29.2789 17.0589C29.3465 17.0235 29.4326 16.9437 29.4788 16.9623C29.6406 17.0261 29.8485 17.0713 29.8103 17.3248C29.6326 17.2361 29.4557 17.1475 29.278 17.0598L29.2789 17.0589Z" fill="#002E78"/>
<path d="M20.8976 17.1006C21.0096 17.0404 21.1215 16.9792 21.2326 16.9189C21.1207 16.9792 21.0087 17.0404 20.8976 17.1006Z" fill="#002E78"/>
<path d="M0 18.0488C0.0568644 18.0647 0.114617 18.0798 0.171482 18.0957C0.13683 18.1241 0.10129 18.1525 0.0666379 18.1808C0.0444253 18.1365 0.0222127 18.0931 0 18.0488Z" fill="#002E78"/>
<path d="M16.4382 30.9232C16.3991 30.8771 16.36 30.8301 16.3218 30.7841L16.4382 30.9232Z" fill="#FCFCFC"/>
<path d="M21.963 18.7223C21.923 18.7409 21.883 18.7595 21.8421 18.7772C21.8821 18.7586 21.9221 18.74 21.963 18.7223Z" fill="#002E78"/>
<path d="M20.0323 19.9177C20.0083 19.9346 19.9843 19.9514 19.9594 19.9682C19.9834 19.9514 20.0074 19.9346 20.0323 19.9177Z" fill="#002E78"/>
<path d="M17.8154 19.2753C17.8305 19.2868 17.8457 19.2983 17.8608 19.3098C17.8421 19.3027 17.8234 19.2948 17.8039 19.2877L17.8146 19.2753H17.8154Z" fill="#FCFCFC"/>
<path d="M11.7283 3.18933C11.4626 3.72015 11.1969 4.25097 10.9313 4.78268C10.9162 4.73748 10.8753 4.679 10.8904 4.64798C11.1125 4.1916 11.3391 3.73788 11.5737 3.2877C11.5977 3.24073 11.6758 3.22212 11.7283 3.19022V3.18933Z" fill="#002E78"/>
<path d="M20.9572 4.64715C20.8461 4.4256 20.7359 4.20494 20.6249 3.9834C20.9323 4.10658 21.0016 4.3485 20.9572 4.64715Z" fill="#010101"/>
<path d="M24.2322 11.2758C24.1434 11.0985 24.0545 10.9213 23.9657 10.7449C24.0545 10.9222 24.1434 11.0994 24.2322 11.2758Z" fill="#002E78"/>
<path d="M26.0519 23.3508V25.0124C26.4544 25.0124 26.8373 25.0044 27.2194 25.0151C27.4797 25.0221 27.7409 25.0434 27.9977 25.0833C28.3034 25.1311 28.625 25.4918 28.6836 25.8197C28.7494 26.1848 28.5672 26.6598 28.2634 26.7972C28.0368 26.9 27.7818 26.9779 27.5348 26.993C27.0523 27.0231 26.5663 27.0019 26.0537 27.0019C26.0537 27.5469 26.0599 28.0635 26.0519 28.581C26.0421 29.2793 25.5303 29.679 24.9333 29.6551C24.5379 29.6391 24.1105 29.2607 24.0945 28.8611C24.0705 28.2567 24.0883 27.6505 24.0883 27.001C23.4805 27.001 22.9217 27.0028 22.3619 27.001C21.8955 26.9992 21.4734 26.6368 21.3659 26.1511C21.2895 25.8055 21.5409 25.3066 21.915 25.148C22.1167 25.0629 22.3495 25.0266 22.5707 25.0177C23.0558 24.9991 23.5419 25.0115 24.0581 25.0115C24.0581 24.5835 24.0456 24.1758 24.0625 23.77C24.0741 23.4793 24.1096 23.1878 24.162 22.9006C24.2082 22.6463 24.7253 22.3131 25.0354 22.3689C25.3766 22.4301 25.7507 22.4859 25.8991 22.8873C25.8982 22.9742 25.8964 23.0601 25.8955 23.147C25.947 23.2143 25.9995 23.2817 26.051 23.349L26.0519 23.3508Z" fill="white"/>
<path d="M25.8964 23.1487C25.8973 23.0619 25.8991 22.9759 25.8999 22.8891C25.9399 22.9795 25.9799 23.069 26.0199 23.1594C25.979 23.1558 25.9382 23.1523 25.8964 23.1487Z" fill="#002E78"/>
<path d="M25.8964 23.1487C25.9373 23.1523 25.9781 23.1558 26.0199 23.1594C26.0306 23.2232 26.0412 23.287 26.0519 23.3508C26.0003 23.2834 25.9479 23.2161 25.8964 23.1487Z" fill="#7B7B7B"/>
</g>
<defs>
<clipPath id="clip0_30_7">
<rect width="33" height="34" fill="white"/>
</clipPath>
</defs>
</svg>
