<svg width="55" height="41" viewBox="0 0 55 41" fill="none" xmlns="http://www.w3.org/2000/svg">
<path d="M55 0.125382C54.9582 0.0840061 54.9153 0.04263 54.8735 0C54.9153 0.0413761 54.9582 0.0827523 55 0.125382Z" fill="#FAFBFC"/>
<path d="M0 40.8746C0.0417241 40.916 0.0847126 40.9574 0.126437 41C0.0847126 40.9586 0.0417241 40.9173 0 40.8746Z" fill="#FAFBFC"/>
<path d="M32.2604 16.9993C32.6587 15.9536 32.34 15.4997 31.2059 15.4997C30.6597 15.4997 30.1122 15.5085 29.566 15.4972C29.0628 15.4872 28.7075 15.7003 28.6468 16.1969C28.5861 16.6921 28.6936 17.1447 29.3132 17.2601C29.4725 17.2902 29.6229 17.3704 29.829 17.4469C27.9603 17.8293 26.2723 18.4951 24.9865 19.6348C24.5503 19.4881 24.2038 19.2988 23.8435 19.265C23.2391 19.2073 22.6259 19.2449 22.0165 19.2512C21.3792 19.2574 21.0707 19.542 21.0669 20.115C21.0632 20.6692 21.4463 21.0968 22.0038 21.1206C22.4375 21.1394 22.8725 21.1244 23.3441 21.1244C23.009 21.6936 22.722 22.2177 22.3933 22.7155C22.325 22.8195 22.11 22.8333 21.9596 22.876C21.0265 23.1393 20.8141 23.7674 21.3843 24.5247C21.4652 24.6326 21.469 24.8282 21.45 24.9761C21.3312 25.8989 21.0859 26.8205 21.091 27.742C21.0998 29.3018 21.464 30.8114 22.2302 32.3122H21.5107C17.6848 32.3122 13.8588 32.311 10.0328 32.3147C9.65729 32.3147 9.28051 32.3536 8.90499 32.3749C8.30442 32.4088 7.83028 32.0351 7.82901 31.4534C7.82016 25.5366 7.82522 19.621 7.82901 13.7043C7.82901 13.6666 7.86315 13.6303 7.88338 13.5876H38.1157V19.6135C37.4532 19.2248 36.8678 18.7735 36.2052 18.5189C35.042 18.0738 33.832 17.7503 32.641 17.3729C32.5259 17.3366 32.4159 17.2877 32.3034 17.245C32.2895 17.1623 32.2743 17.0808 32.2604 16.998V16.9993ZM15.4405 15.4997C15.1055 15.4997 14.7717 15.4947 14.4366 15.4997C13.8322 15.5098 13.5263 15.7743 13.4972 16.3047C13.4681 16.8551 13.8373 17.3416 14.3658 17.3654C15.0549 17.3968 15.7478 17.3993 16.4356 17.3654C16.9578 17.3391 17.3307 16.83 17.2789 16.2834C17.2283 15.753 16.9211 15.4909 16.3812 15.4985C16.0676 15.5022 15.7541 15.4985 15.4405 15.4985V15.4997ZM23.0204 15.4997C22.6853 15.4997 22.3515 15.496 22.0165 15.4997C21.4096 15.5085 21.0998 15.7706 21.0669 16.2947C21.0328 16.8388 21.4045 17.3416 21.9255 17.3654C22.6145 17.398 23.3074 17.398 23.9952 17.3654C24.5174 17.3403 24.8866 16.8388 24.8512 16.2921C24.8171 15.7655 24.5098 15.5072 23.8991 15.4985C23.6058 15.4947 23.3137 15.4985 23.0204 15.4985V15.4997ZM15.4127 19.2499C15.1194 19.2499 14.826 19.2499 14.5327 19.2499C13.855 19.2537 13.5414 19.4894 13.4984 20.0273C13.4605 20.5012 13.9384 21.0843 14.4581 21.1156C15.0852 21.1532 15.7174 21.157 16.3433 21.1143C16.8591 21.0792 17.3282 20.4812 17.2827 20.0097C17.2321 19.4731 16.9261 19.2524 16.2295 19.2499C15.9564 19.2499 15.6845 19.2499 15.4114 19.2499H15.4127ZM15.419 23.0001C15.1257 23.0001 14.8323 23.0001 14.539 23.0001C13.9915 23.0001 13.5414 23.3524 13.4972 23.8163C13.4592 24.2263 13.9726 24.8382 14.4442 24.8658C15.07 24.9021 15.7035 24.9122 16.3268 24.8645C16.9641 24.8156 17.3358 24.3392 17.2827 23.7561C17.2334 23.217 16.9375 23.0039 16.2345 23.0013C15.9627 23.0013 15.6896 23.0013 15.4178 23.0013L15.419 23.0001ZM15.419 26.7503C15.1257 26.7503 14.8323 26.7503 14.539 26.7503C13.9915 26.7503 13.5414 27.1039 13.4984 27.5665C13.4605 27.9765 13.9738 28.5884 14.4455 28.616C15.0713 28.6523 15.7048 28.6624 16.3281 28.6147C16.9653 28.5658 17.3371 28.0881 17.284 27.5063C17.2346 26.9672 16.9388 26.754 16.2358 26.7515C15.964 26.7515 15.6909 26.7515 15.419 26.7515V26.7503Z" fill="#002E78"/>
<path d="M39.4811 24.7505C40.2246 26.5008 40.198 28.2825 39.7037 30.083C39.667 30.2159 39.6379 30.3513 39.605 30.4842C39.5229 30.4955 39.4394 30.5081 39.3572 30.5193C39.3243 30.5532 39.2915 30.587 39.2599 30.6209C39.2915 30.7049 39.3243 30.7902 39.356 30.8742C38.5215 33.1135 36.874 34.5441 34.7309 35.5133C33.3881 36.1214 31.9746 36.243 30.5547 36.1039C28.8845 35.9396 27.395 35.2425 26.1079 34.1742C24.4718 32.8163 23.43 31.0485 23.1253 28.9897C22.8408 27.0726 23.1329 25.1668 24.2025 23.4566C25.0762 22.0598 26.1648 20.9075 27.7099 20.2129C30.2841 19.0544 32.828 19.0318 35.3997 20.2355C37.0523 21.0091 38.2307 22.2291 39.0715 23.8014C39.1827 24.0095 39.2042 24.2653 39.2675 24.4985C39.3395 24.5825 39.4103 24.6665 39.4824 24.7505H39.4811ZM32.5461 26.7491C32.5461 25.8413 32.5549 24.9925 32.5435 24.1437C32.5347 23.5017 32.0745 23.0002 31.5283 23.0027C31.0162 23.0064 30.6558 23.4578 30.6546 24.1098C30.652 25.2959 30.6495 26.482 30.6571 27.6681C30.6609 28.2612 31.0174 28.6173 31.6079 28.6211C32.7623 28.6273 33.9179 28.6248 35.0723 28.6236C35.7753 28.6236 36.3455 28.186 36.3265 27.6681C36.3076 27.1629 35.7614 26.7541 35.0849 26.7504C34.2669 26.7453 33.4488 26.7504 32.5461 26.7504V26.7491Z" fill="#002E78"/>
<path d="M15.3975 6.04721C16.672 6.03718 17.9464 6.0259 19.2209 6.01587C19.2298 6.97254 19.2222 7.9292 19.2551 8.88462C19.2715 9.36358 19.4283 9.76104 20.044 9.75853C20.6964 9.75477 21.077 9.52156 21.1023 8.90844C21.1402 7.95679 21.0884 7.00137 21.0745 6.04847C22.349 6.03844 23.6234 6.02715 24.8979 6.01712C24.9068 6.97379 24.8992 7.93046 24.9321 8.88587C24.9485 9.36483 25.1053 9.76229 25.721 9.75978C26.3734 9.75602 26.754 9.52281 26.7793 8.90969C26.8172 7.95804 26.7654 7.00263 26.7515 6.04972C28.026 6.03969 29.3005 6.02841 30.5749 6.01838C30.5838 6.97504 30.5762 7.93171 30.6091 8.88712C30.6255 9.36608 30.781 9.76354 31.398 9.76104C32.0505 9.75728 32.431 9.52532 32.4563 8.91095C32.4943 7.95929 32.4424 7.00388 32.4285 6.05098C33.8572 6.05599 35.2872 6.05975 36.716 6.06728C37.8729 6.07354 38.1586 6.35566 38.1599 7.48786C38.1611 8.85954 38.1599 10.23 38.1599 11.6455H7.82391C7.82391 10.0544 7.80368 8.4533 7.83655 6.85468C7.8454 6.41458 8.10207 6.1237 8.64069 6.11994C10.2755 6.1074 11.9091 6.05599 13.5439 6.01838C13.5667 7.03397 13.5755 8.05082 13.621 9.06642C13.6299 9.27079 13.7247 9.53159 13.8739 9.65822C14.4732 10.1723 15.3621 9.76856 15.4215 8.90593C15.486 7.95929 15.4114 7.00263 15.3975 6.05098V6.04721Z" fill="#002E78"/>
<path d="M15.3949 6.07098C14.7804 6.04967 14.166 6.0271 13.5515 6.00579C13.5338 5.72869 13.5199 5.45034 13.4971 5.17325C13.4529 4.64539 13.8549 4.17019 14.3847 4.13007C14.9006 4.08994 15.3734 4.51499 15.3886 5.03909C15.3987 5.38264 15.3937 5.72744 15.3949 6.07224V6.07098Z" fill="#002E78"/>
<path d="M21.072 6.07102C20.4575 6.04971 19.843 6.02714 19.2285 6.00583C19.2374 5.65601 19.2563 5.30745 19.2525 4.95763C19.2462 4.40846 19.6255 4.16521 20.0655 4.15268C20.5106 4.14014 20.9809 4.33072 21.0669 4.85482C21.1314 5.25103 21.0758 5.66604 21.0732 6.07228L21.072 6.07102Z" fill="#002E78"/>
<path d="M26.749 6.07102C26.1345 6.04971 25.52 6.02714 24.9055 6.00583C24.9144 5.65601 24.9333 5.30745 24.9295 4.95763C24.9232 4.40846 25.3025 4.16521 25.7425 4.15268C26.1876 4.14014 26.6579 4.33072 26.7439 4.85482C26.8084 5.25103 26.7528 5.66604 26.7502 6.07228L26.749 6.07102Z" fill="#002E78"/>
<path d="M32.4247 6.07102C31.8103 6.04971 31.1958 6.02714 30.5813 6.00583C30.5901 5.65601 30.6091 5.30745 30.6053 4.95763C30.599 4.40846 30.9783 4.16521 31.4183 4.15268C31.8634 4.14014 32.3337 4.33072 32.4197 4.85482C32.4842 5.25103 32.4285 5.66604 32.426 6.07228L32.4247 6.07102Z" fill="#002E78"/>
<path d="M39.3548 30.8754C39.3232 30.7914 39.2903 30.7061 39.2587 30.6221C39.2915 30.5883 39.3244 30.5544 39.356 30.5206C39.4382 30.5093 39.5217 30.4968 39.6038 30.4855C39.5204 30.6159 39.4369 30.7463 39.3548 30.8767V30.8754Z" fill="#F5F7F8"/>
<path d="M32.2604 16.9993C32.2743 17.082 32.2894 17.1635 32.3034 17.2463C32.2326 17.2024 32.1617 17.1598 32.0909 17.1159C32.1478 17.077 32.2047 17.0381 32.2604 16.9993Z" fill="#F7F9FA"/>
<path d="M39.356 30.5205C39.3231 30.5544 39.2903 30.5882 39.2587 30.6221C39.2915 30.5882 39.3244 30.5544 39.356 30.5205Z" fill="#F8FAFB"/>
</svg>
